<svg xmlns="http://www.w3.org/2000/svg" viewBox="0 0 87.303 51.541">
  <defs>
    <style>
      .cls-1 {
        fill: #717171;
      }
    </style>
  </defs>
  <path id="Path_466" data-name="Path 466" class="cls-1" d="M52.831,4.895A25.639,25.639,0,0,0,34.2-2.493,25.634,25.634,0,0,0,15.569,4.895a26.207,26.207,0,0,0-2.261,2.543,21.18,21.18,0,0,0-2.1-2.258Q4.073-1.351-9.274-1.352H-26.907V18.325H-15.77V8.359h6.208q8.495,0,12.6,3.959a12.833,12.833,0,0,1,3.444,6.007H20.106a16.021,16.021,0,0,1,3.6-6.4A13.67,13.67,0,0,1,34.235,7.215a13.679,13.679,0,0,1,10.529,4.712,16.337,16.337,0,0,1,4.282,11.386,16.2,16.2,0,0,1-4.282,11.35,13.725,13.725,0,0,1-10.529,4.676,13.716,13.716,0,0,1-10.529-4.676,15.781,15.781,0,0,1-3.58-6.312H6.628a12.622,12.622,0,0,1-3.589,6.493Q-1.068,38.7-8.705,38.7H-15.77V28.351H-26.907v20.2H-9.846q14.278,0,21.236-6.783a21.738,21.738,0,0,0,2.1-2.406,26.8,26.8,0,0,0,2.077,2.3A25.634,25.634,0,0,0,34.2,49.048,25.639,25.639,0,0,0,52.831,41.66,24.653,24.653,0,0,0,60.4,23.277,24.653,24.653,0,0,0,52.831,4.895" transform="translate(26.906 2.493)"/>
</svg>
